<svg xmlns="http://www.w3.org/2000/svg" viewBox="0 0 155 35" enable-background="new 0 0 155 35"><path fill="#fff" d="M22.2 8.3l-5.9 16.3c-.2.6-.6 1.1-1.1 1.4-.5.3-1 .4-1.7.4-.9 0-1.6-.2-2-.5-.4-.4-.8-.9-1-1.5l-5.5-14.8v15c0 .6-.2 1.1-.5 1.5-.4.4-1 .6-2 .6-.9 0-1.6-.2-1.9-.5-.4-.4-.6-1-.6-1.7v-21.5c0-.9.3-1.6.9-2 .6-.4 1.5-.6 2.5-.6 1.1 0 1.9.2 2.5.6.6.4 1 1 1.2 1.7l6.5 18.3 6.1-18c.3-.9.8-1.6 1.4-2 .7-.4 1.6-.6 2.7-.6 1 0 1.9.2 2.5.6.6.4.9 1 .9 1.8v21.8c0 .6-.2 1.1-.5 1.5-.4.4-1 .6-2 .6-.9 0-1.5-.2-1.9-.6-.4-.4-.6-.9-.6-1.7v-16.1zM46.9 24.6c0 .7-.2 1.2-.5 1.6-.4.3-1 .5-1.8.5-.7 0-1.3-.2-1.8-.5-.4-.3-.7-.8-.7-1.6v-.7l-.9 1s-.7.7-1.2.9c-.5.3-1 .5-1.7.7-.6.2-1.4.3-2.2.3-2 0-3.5-.5-4.6-1.5-1.1-1-1.7-2.4-1.7-4.1 0-1 .2-1.8.5-2.5s.8-1.3 1.4-1.7c.6-.5 1.3-.8 2-1.1.8-.3 1.6-.5 2.5-.6.9-.2 1.9-.3 2.8-.4 1-.1 2-.2 3.1-.3v-.7c0-.4 0-.7-.1-1.1-.1-.4-.3-.7-.5-1-.2-.3-.6-.5-1-.7-.4-.2-.9-.3-1.6-.3-.4 0-.8 0-1.1.1-.3 0-.7.1-1 .2-.3.1-.6.3-1 .5-.3.2-.7.4-1.1.7l-.9.6c-.3.1-.6.2-1.1.2-.6 0-1.1-.2-1.5-.7-.4-.4-.7-1-.7-1.6 0-.4.2-.9.5-1.4.3-.5.9-.9 1.6-1.3.7-.4 1.6-.7 2.6-1 1-.3 2.2-.4 3.6-.4 2.9 0 4.9.6 6.2 1.7 1.3 1.1 1.9 2.9 1.9 5.2v11zm-4.8-7l-2.7.3c-.9.1-1.5.2-1.9.3-1.2.2-2 .6-2.3 1.1-.4.5-.5.9-.5 1.4 0 .6.2 1.1.6 1.5.4.4 1.1.5 2 .5 1.5 0 2.7-.4 3.6-1.1.8-.7 1.3-1.6 1.3-2.7v-1.3zM68.2 25.2c0 1.7-.2 3.1-.6 4.3-.4 1.2-1 2.2-1.8 2.9-.8.8-1.8 1.3-3 1.7-1.2.4-2.5.5-4 .5-1.8 0-3.2-.2-4.3-.5-1-.3-1.8-.7-2.3-1-.6-.4-.9-1-.9-1.7 0-.6.2-1.2.6-1.7.4-.5.9-.8 1.6-.8.4 0 .7.1 1 .2.3.2.6.3 1 .5s.8.4 1.3.5c.5.2 1.2.2 2 .2 1.4 0 2.4-.4 3.2-1.2.8-.8 1.2-1.9 1.2-3.4v-2.1c-.5.6-1.2 1.2-2.1 1.7-.9.5-2.1.8-3.4.8-1.3 0-2.4-.2-3.4-.7s-1.9-1.1-2.6-2c-.7-.8-1.3-1.9-1.6-3.1-.4-1.2-.6-2.5-.6-4s.2-2.9.6-4.1c.4-1.2 1-2.3 1.7-3.1.7-.9 1.6-1.5 2.6-2s2.2-.7 3.4-.7c.8 0 1.4.1 2 .3s1.1.4 1.5.7c.4.3.8.5 1.1.9.3.3.6.6.8.9v-.6c0-.6.2-1 .7-1.3.5-.2 1-.4 1.7-.4.9 0 1.6.2 2 .6.4.4.6 1 .6 1.6v16.1zm-4.8-8.6c0-1.7-.4-3-1.1-4.1-.7-1-1.8-1.6-3.3-1.6-1.3 0-2.4.5-3.1 1.5-.7 1-1.1 2.4-1.1 4 0 1.7.4 3 1.1 4 .7 1 1.7 1.5 3 1.5 1.5 0 2.6-.5 3.3-1.4s1.2-2.1 1.2-3.9zM132.7 20.8c0 2.1-.8 3.6-2.3 4.7-1.5 1-3.6 1.6-6.2 1.6-1.5 0-2.8-.2-4-.5-1.2-.3-2.1-.8-2.8-1.3-.3-.2-.6-.5-.7-.8-.2-.3-.2-.6-.2-.8 0-.5.1-1 .4-1.4.2-.4.5-.7.8-.9.3-.2.7-.4 1.1-.4.4 0 .7.1 1.1.3.3.2.7.5 1.2.8.4.3.9.5 1.5.8.6.2 1.3.3 2.2.3 1.1 0 1.8-.2 2.3-.5.5-.3.7-.8.7-1.4 0-.4-.2-.9-.5-1.2-.3-.4-1-.6-2.1-.8l-2.2-.4c-.9-.1-1.8-.4-2.5-.7-.8-.3-1.4-.7-2-1.1-.5-.5-1-1-1.3-1.7s-.4-1.5-.4-2.4c0-1 .2-1.9.6-2.6.4-.8 1-1.4 1.7-2 .7-.5 1.6-.9 2.6-1.2 1-.3 2.1-.4 3.3-.4 1.7 0 3.1.2 4.2.6 1.1.4 1.9.8 2.4 1.2.3.3.5.5.7.8.1.3.2.5.2.8 0 .6-.2 1.1-.5 1.5l-.6.6c-.2.1-.5.2-.8.2-.3 0-.6-.1-.8-.2-.3-.1-.5-.2-.7-.4-.7-.4-1.3-.7-1.9-1-.6-.2-1.4-.4-2.4-.4s-1.7.2-2.1.5c-.5.3-.7.7-.7 1.2 0 .4.2.8.5 1.2.3.3 1.1.6 2.2.8l2 .4c2.3.4 3.9 1.1 4.9 2 .6 1 1.1 2.4 1.1 4.2zM146 6.6c1.3 0 2.4.2 3.2.6.8.4 1.6 1 2.2 1.8.6.8 1 1.8 1.2 2.8.1 1 .2 2 .2 2.9v9.9c0 .7-.2 1.2-.6 1.6-.4.3-1.1.5-1.9.5-.7 0-1.4-.2-1.8-.5-.5-.3-.7-.8-.7-1.6v-9.8c0-1.1-.1-1.9-.3-2.4-.2-.5-.6-.8-1-1-.5-.2-1-.3-1.7-.3-.6 0-1.2.1-1.7.3-.5.2-.9.4-1.2.7-.3.3-.6.6-.7 1s-.3.7-.4 1c-.1.4-.2 1-.2 1.5v8.9c0 .8-.2 1.3-.6 1.7-.4.3-1.1.5-2 .5-.8 0-1.4-.2-1.8-.5-.4-.3-.7-.9-.7-1.6v-22.2c0-.7.2-1.2.6-1.5.4-.4 1.1-.5 2-.5.3 0 .6 0 .9.1.3.1.6.2.8.3.2.1.4.4.6.6.1.3.2.6.2 1.1v6.9c.5-.7 1.2-1.3 2.2-1.9.7-.6 1.9-.9 3.2-.9z"/><path fill="#27B67C" d="M102.5 8.9c-3.1 0-5.9 1.2-8.1 3.1-1.1-5.5-6-9.7-11.9-9.7-6.7 0-12.1 5.4-12.1 12.1 0 6.7 5.4 12.1 12.1 12.1 3.1 0 5.9-1.2 8.1-3.1 1.1 5.5 6 9.7 11.9 9.7 6.7 0 12.1-5.4 12.1-12.1 0-6.6-5.4-12.1-12.1-12.1zm-10.4 2.2l-11 11.2c-.1.1-.3.1-.5 0l-7.4-7.1c-.1-.1-.1-.3 0-.5l2-2.1c.1-.1.3-.1.5 0l4.9 4.6c.1.1.2.1.2 0l8.6-8.5c.1-.1.3-.1.5 0l2.2 2c.1 0 .1.2 0 .4zm9 17.8c-.1.1-.3.1-.5 0l-7.4-7.1c-.1-.1-.1-.3 0-.5l2-2.1c.1-.1.3-.1.5 0l4.9 4.6c.1.1.2.1.2 0l8.6-8.5c.1-.1.3-.1.5 0l2.2 2c.1.1.1.3 0 .5l-11 11.1z"/><path fill="#fff" d="M92.4 10.7l-11 11.2c-.1.1-.3.1-.5 0l-7.4-7.1c-.1-.1-.1-.3 0-.5l2-2.1c.1-.1.3-.1.5 0l4.9 4.6c.1.1.2.1.2 0l8.6-8.5c.1-.1.3-.1.5 0l2.2 2c.1.1.1.3 0 .4zM101.4 28.5c-.1.1-.3.1-.5 0l-7.4-7.1c-.1-.1-.1-.3 0-.5l2-2.1c.1-.1.3-.1.5 0l4.9 4.6c.1.1.2.1.2 0l8.6-8.5c.1-.1.3-.1.5 0l2.2 2c.1.1.1.3 0 .5l-11 11.1z"/></svg>